<?xml version="1.0" encoding="utf-8"?>
<!DOCTYPE svg PUBLIC "-//W3C//DTD SVG 1.1//EN" "http://www.w3.org/Graphics/SVG/1.1/DTD/svg11.dtd">
<!-- exported from Silhouette Studio® Business Edition V4.3.356ssbe -->
<svg version="1.1" xmlns="http://www.w3.org/2000/svg" xmlns:xlink="http://www.w3.org/1999/xlink" width="215.9mm" height="279.4mm" viewBox="0 0 215.9 279.4">
<defs/>
<path d="M 159.349 93.83328 C 159.349 93.83328 171.3047 73.21745 175.1386 66.60001 C 175.1386 66.60001 187.1486 87.19273 191.019 93.82211 L 191.5206 93.42039 C 191.5206 93.42039 184.4253 81.18246 175.7669 66.22806 C 175.7669 66.22806 205.664 66.00393 207.5753 65.94089 C 207.5724 65.90724 207.528 65.37444 207.528 65.37444 C 207.528 65.37444 187.2247 65.47137 175.7642 65.51289 C 176.7217 63.85463 191.384 37.99102 191.384 37.99102 L 190.713 37.61395 C 190.713 37.61395 177.0496 61.8371 175.1412 65.15675 C 175.1412 65.15675 160.7248 39.18066 159.7217 37.55119 L 158.9431 38.03314 C 158.9431 38.03314 167.8334 53.91131 174.5116 65.50533 C 172.5988 65.50191 148.6445 65.2738 142.909 65.45168 C 142.909 65.45168 142.9463 65.84956 142.9563 66.01809 C 142.9563 66.01809 170.6982 66.23553 174.5198 66.23586 C 174.5198 66.23586 159.7837 91.29478 158.5969 93.38533 L 159.349 93.83328 Z" fill="none" fill-opacity="1" stroke="#FF0000" stroke-opacity="1" stroke-width="0.1" stroke-linecap="round" stroke-linejoin="round"/>
<path d="M 210.8224 66.21879 C 210.8224 86.10851 194.6654 102.265 174.7751 102.265 C 154.8848 102.265 138.7278 86.10851 138.7278 66.21879 C 138.7278 46.32907 154.8848 30.17258 174.7751 30.17258 C 194.6654 30.17258 210.8224 46.32907 210.8224 66.21879 Z" fill="none" fill-opacity="1" stroke="#FF0000" stroke-opacity="1" stroke-width="0.1" stroke-linecap="round" stroke-linejoin="round"/>
<path d="M 25.58607 124.625 C 25.58607 124.625 35.35482 107.7798 38.4874 102.3726 C 38.4874 102.3726 48.30054 119.199 51.46288 124.6159 L 51.87282 124.2877 C 51.87282 124.2877 46.07534 114.288 39.00075 102.0687 C 39.00075 102.0687 63.42912 101.8856 64.99078 101.834 C 64.98839 101.8066 64.9521 101.3712 64.9521 101.3712 C 64.9521 101.3712 48.36266 101.4504 38.99857 101.4843 C 39.78092 100.1294 51.76116 78.99612 51.76116 78.99612 L 51.21294 78.68801 C 51.21294 78.68801 40.0488 98.48083 38.4895 101.1933 C 38.4895 101.1933 26.71021 79.96816 25.89062 78.63672 L 25.25442 79.03053 C 25.25442 79.03053 32.5185 92.00462 37.97507 101.4782 C 36.41221 101.4754 16.83964 101.289 12.15331 101.4343 C 12.15331 101.4343 12.18375 101.7594 12.19196 101.8971 C 12.19196 101.8971 34.85929 102.0748 37.98183 102.0751 C 37.98183 102.0751 25.94127 122.5508 24.97153 124.259 L 25.58607 124.625 Z" fill="none" fill-opacity="1" stroke="#FF0000" stroke-opacity="1" stroke-width="0.1" stroke-linecap="round" stroke-linejoin="round"/>
<path d="M 68.96511 101.9574 C 68.96511 118.7334 55.33762 132.3606 38.56127 132.3606 C 21.78492 132.3606 8.15743 118.7334 8.157429 101.9574 C 8.157428 85.18143 21.78492 71.55424 38.56127 71.55424 C 55.33762 71.55424 68.96511 85.18143 68.96511 101.9574 Z" fill="none" fill-opacity="1" stroke="#FF0000" stroke-opacity="1" stroke-width="0.1" stroke-linecap="round" stroke-linejoin="round"/>
<path d="M 126.8607 52.53009 C 126.8607 52.53009 100.9351 52.4911 94.45375 52.48137 C 94.45375 52.48137 107.3885 29.90125 110.6141 24.25162 L 110.1522 23.97488 C 110.1522 23.97488 101.2215 39.48654 93.91454 52.17786 C 93.91454 52.17786 78.4325 25.56024 77.57635 24.18419 C 77.55289 24.2006 77.10191 24.50439 77.10191 24.50439 C 77.10191 24.50439 88.5041 44.08932 93.39076 52.48286 C 91.76797 52.48279 60.93481 52.49916 60.93481 52.49916 L 60.94237 53.15139 C 60.94237 53.15139 90.14828 53.09707 93.39338 53.09104 C 93.39338 53.09104 77.85429 79.69724 77.08339 81.12389 L 77.68825 81.44563 C 77.68825 81.44563 88.23631 63.21949 93.91599 53.40543 C 94.72397 54.81069 107.6044 77.32492 110.1652 81.45897 C 110.1652 81.45897 110.5202 81.21758 110.6396 81.13879 C 110.6396 81.13879 96.06776 55.8947 94.44865 53.0898 C 94.44865 53.0898 124.8134 53.19577 126.8506 53.18098 L 126.8607 52.53009 Z" fill="none" fill-opacity="1" stroke="#FF0000" stroke-opacity="1" stroke-width="0.1" stroke-linecap="round" stroke-linejoin="round"/>
<path d="M 131.3511 52.73747 C 131.3511 73.43891 114.5325 90.25475 93.8277 90.25475 C 73.12289 90.25475 56.30432 73.43891 56.30432 52.73747 C 56.30432 32.03603 73.12289 15.22019 93.8277 15.22019 C 114.5325 15.22019 131.3511 32.03603 131.3511 52.73747 Z" fill="none" fill-opacity="1" stroke="#FF0000" stroke-opacity="1" stroke-width="0.1" stroke-linecap="round" stroke-linejoin="round"/>
<path d="M 37.42725 204.3934 C 36.83179 204.4277 36.76854 204.3848 36.23732 204.3108 C 35.74237 204.2418 35.2565 204.1231 35.2565 204.1231 C 34.84774 204.0071 33.74144 203.3768 33.74144 203.3768 C 32.68493 202.8178 31.76464 202.4355 30.86082 202.5059 C 29.34666 202.6237 27.45 203.47 25.94346 203.6564 C 24.0162 203.8948 22.26983 203.2874 21.67184 203.0505 C 19.40383 202.1521 17.60234 200.4162 17.21938 200.0462 C 14.74614 197.6569 12.78183 194.3613 12.58733 194.0379 C 10.61884 190.7657 9.266438 187.6511 8.788218 186.4797 C 6.946422 181.9683 6.290584 177.5942 6.213186 177.1159 C 5.314922 171.5648 5.446516 165.734 6.727134 161.0764 C 7.520454 158.1911 9.279998 153.8925 13.10572 150.8035 C 16.605 147.9781 20.05466 147.9988 21.87644 148.2192 C 24.46449 148.5322 28.98601 150.1503 30.21543 150.5648 C 30.21543 150.5648 32.33575 151.3098 32.72932 151.3634 C 32.92012 151.3893 36.19851 151.4028 36.58373 151.4162 C 36.50394 148.5892 36.20656 141.9963 36.20656 141.9963 C 36.57211 141.9897 37.36435 142.0008 37.42528 142.0016 C 37.48621 142.0008 38.28244 141.9897 38.64799 141.9963 C 38.64799 141.9963 38.35059 148.5892 38.2708 151.4162 C 38.65603 151.4028 41.93441 151.3893 42.12521 151.3634 C 42.51878 151.3098 44.6391 150.5648 44.6391 150.5648 C 45.86852 150.1503 50.39005 148.5322 52.9781 148.2192 C 54.79988 147.9988 58.24953 147.9781 61.74882 150.8035 C 65.57454 153.8925 67.33408 158.1911 68.1274 161.0764 C 69.40802 165.734 69.53956 171.5648 68.64134 177.1159 C 68.56395 177.5942 67.9081 181.9683 66.06631 186.4797 C 65.58809 187.6511 64.23565 190.7657 62.26719 194.0379 C 62.0727 194.3613 60.10842 197.657 57.63513 200.0462 C 57.25217 200.4162 55.45067 202.1521 53.18267 203.0505 C 52.58467 203.2874 50.83831 203.8948 48.91104 203.6564 C 47.4045 203.47 45.50784 202.6237 43.99367 202.5058 C 43.08986 202.4355 42.16958 202.8178 41.11307 203.3768 C 41.11307 203.3768 40.00677 204.0071 39.59801 204.1231 C 39.59801 204.1231 39.11214 204.2418 38.61718 204.3108 C 38.08596 204.3848 38.0227 204.4277 37.42725 204.3934 Z" fill="none" fill-opacity="1" stroke="#FF0000" stroke-opacity="1" stroke-width="0.1" stroke-linecap="round" stroke-linejoin="round"/>
<path d="M 37.31541 142.0311 L 37.31541 203.3463" fill="none" fill-opacity="1" stroke="#FF0000" stroke-opacity="1" stroke-width="0.1" stroke-dasharray="2.5 2.5" stroke-dashoffset="0" stroke-linecap="round" stroke-linejoin="round"/>
<path d="M 108.8548 202.9649 C 108.2593 202.9992 108.1961 202.9562 107.6648 202.8822 C 107.1699 202.8133 106.684 202.6946 106.684 202.6946 C 106.2752 202.5785 105.169 201.9482 105.169 201.9482 C 104.1124 201.3893 103.1922 201.007 102.2883 201.0773 C 100.7742 201.1952 98.87752 202.0415 97.37098 202.2278 C 95.44371 202.4662 93.69735 201.8588 93.09936 201.6219 C 90.83134 200.7236 89.02985 198.9876 88.64689 198.6177 C 86.17365 196.2284 84.20934 192.9327 84.01484 192.6094 C 82.04636 189.3371 80.69394 186.2226 80.21572 185.0512 C 78.37392 180.5397 77.71809 176.1656 77.64069 175.6873 C 76.74242 170.1362 76.87402 164.3055 78.15463 159.6479 C 78.94795 156.7626 80.7075 152.464 84.53323 149.375 C 88.03252 146.5495 91.48216 146.5703 93.30395 146.7906 C 95.892 147.1037 100.4135 148.7217 101.6429 149.1363 C 101.6429 149.1363 103.7633 149.8813 104.1568 149.9348 C 104.3476 149.9608 107.626 149.9743 108.0112 149.9877 C 107.9315 147.1607 107.6341 140.5678 107.6341 140.5678 C 107.9996 140.5611 108.7919 140.5722 108.8528 140.5731 C 108.9137 140.5722 109.71 140.5611 110.0755 140.5678 C 110.0755 140.5678 109.7781 147.1607 109.6983 149.9877 C 110.0835 149.9743 113.3619 149.9608 113.5527 149.9348 C 113.9463 149.8813 116.0666 149.1363 116.0666 149.1363 C 117.296 148.7217 121.8176 147.1037 124.4056 146.7906 C 126.2274 146.5703 129.677 146.5495 133.1763 149.375 C 137.0021 152.464 138.7616 156.7626 139.5549 159.6479 C 140.8355 164.3055 140.9671 170.1362 140.0689 175.6873 C 139.9915 176.1656 139.3356 180.5397 137.4938 185.0512 C 137.0156 186.2226 135.6632 189.3371 133.6947 192.6094 C 133.5002 192.9327 131.5359 196.2284 129.0627 198.6177 C 128.6797 198.9876 126.8782 200.7235 124.6102 201.6219 C 124.0122 201.8588 122.2658 202.4662 120.3386 202.2278 C 118.832 202.0415 116.9353 201.1952 115.4212 201.0773 C 114.5174 201.007 113.5971 201.3893 112.5406 201.9482 C 112.5406 201.9482 111.4343 202.5785 111.0255 202.6946 C 111.0255 202.6946 110.5397 202.8133 110.0447 202.8822 C 109.5135 202.9562 109.4502 202.9992 108.8548 202.9649 Z" fill="none" fill-opacity="1" stroke="#FF0000" stroke-opacity="1" stroke-width="0.1" stroke-linecap="round" stroke-linejoin="round"/>
<path d="M 108.7429 140.6025 L 108.7429 201.9177" fill="none" fill-opacity="1" stroke="#FF0000" stroke-opacity="1" stroke-width="0.1" stroke-dasharray="2.5 2.5" stroke-dashoffset="0" stroke-linecap="round" stroke-linejoin="round"/>
<path d="M 177.9005 204.3935 C 177.305 204.4278 177.2418 204.3848 176.7106 204.3108 C 176.2156 204.2419 175.7297 204.1232 175.7297 204.1232 C 175.321 204.0071 174.2147 203.3768 174.2147 203.3768 C 173.1582 202.8179 172.2379 202.4356 171.3341 202.5059 C 169.8199 202.6238 167.9232 203.4701 166.4167 203.6564 C 164.4894 203.8948 162.7431 203.2874 162.1451 203.0505 C 159.8771 202.1522 158.0756 200.4162 157.6926 200.0462 C 155.2194 197.657 153.2551 194.3613 153.0606 194.038 C 151.0921 190.7657 149.7397 187.6512 149.2615 186.4798 C 147.4197 181.9683 146.7638 177.5942 146.6864 177.1159 C 145.7881 171.5648 145.9197 165.7341 147.2003 161.0765 C 147.9937 158.1912 149.7532 153.8926 153.5789 150.8036 C 157.0782 147.9781 160.5279 147.9988 162.3497 148.2192 C 164.9377 148.5323 169.4593 150.1503 170.6887 150.5648 C 170.6887 150.5648 172.809 151.3099 173.2026 151.3634 C 173.3934 151.3894 176.6718 151.4029 177.057 151.4163 C 176.9772 148.5893 176.6798 141.9964 176.6798 141.9964 C 177.0453 141.9897 177.8376 142.0008 177.8985 142.0017 C 177.9594 142.0008 178.7557 141.9897 179.1212 141.9964 C 179.1212 141.9964 178.8238 148.5893 178.744 151.4163 C 179.1293 151.4029 182.4076 151.3894 182.5984 151.3634 C 182.992 151.3099 185.1124 150.5648 185.1124 150.5648 C 186.3418 150.1503 190.8633 148.5323 193.4513 148.2192 C 195.2731 147.9988 198.7228 147.9781 202.2221 150.8036 C 206.0478 153.8926 207.8073 158.1912 208.6006 161.0765 C 209.8813 165.7341 210.0128 171.5648 209.1146 177.1159 C 209.0372 177.5942 208.3813 181.9683 206.5396 186.4798 C 206.0613 187.6512 204.7089 190.7657 202.7404 194.038 C 202.5459 194.3613 200.5817 197.657 198.1084 200.0462 C 197.7254 200.4162 195.9239 202.1521 193.6559 203.0505 C 193.0579 203.2874 191.3116 203.8948 189.3843 203.6564 C 187.8778 203.4701 185.9811 202.6237 184.4669 202.5059 C 183.5631 202.4356 182.6428 202.8179 181.5863 203.3768 C 181.5863 203.3768 180.48 204.0071 180.0712 204.1232 C 180.0712 204.1232 179.5854 204.2419 179.0904 204.3108 C 178.5592 204.3848 178.4959 204.4278 177.9005 204.3935 Z" fill="none" fill-opacity="1" stroke="#FF0000" stroke-opacity="1" stroke-width="0.1" stroke-linecap="round" stroke-linejoin="round"/>
<path d="M 177.7886 142.0311 L 177.7886 203.3463" fill="none" fill-opacity="1" stroke="#FF0000" stroke-opacity="1" stroke-width="0.1" stroke-dasharray="2.5 2.5" stroke-dashoffset="0" stroke-linecap="round" stroke-linejoin="round"/>
<path d="M 37.42725 273.4935 C 36.8318 273.5278 36.76855 273.4848 36.23733 273.4108 C 35.74237 273.3419 35.2565 273.2232 35.2565 273.2232 C 34.84774 273.1071 33.74144 272.4768 33.74144 272.4768 C 32.68493 271.9179 31.76465 271.5356 30.86083 271.6059 C 29.34666 271.7238 27.45001 272.5701 25.94347 272.7564 C 24.01621 272.9948 22.26984 272.3874 21.67185 272.1505 C 19.40384 271.2521 17.60235 269.5162 17.21939 269.1462 C 14.74614 266.757 12.78183 263.4613 12.58733 263.138 C 10.61885 259.8657 9.266443 256.7512 8.788223 255.5798 C 6.946425 251.0683 6.290586 246.6942 6.213188 246.2159 C 5.314924 240.6648 5.446518 234.8341 6.727136 230.1765 C 7.520456 227.2912 9.280001 222.9926 13.10572 219.9035 C 16.60501 217.0781 20.05466 217.0988 21.87645 217.3192 C 24.4645 217.6323 28.98602 219.2503 30.21544 219.6648 C 30.21544 219.6648 32.33575 220.4099 32.72933 220.4634 C 32.92012 220.4894 36.19851 220.5029 36.58374 220.5163 C 36.50395 217.6893 36.20657 211.0964 36.20657 211.0964 C 36.57211 211.0897 37.36436 211.1008 37.42529 211.1017 C 37.48622 211.1008 38.28246 211.0897 38.648 211.0964 C 38.648 211.0964 38.3506 217.6893 38.27081 220.5163 C 38.65604 220.5029 41.93442 220.4894 42.12522 220.4634 C 42.51879 220.4099 44.63911 219.6648 44.63911 219.6648 C 45.86853 219.2503 50.39006 217.6323 52.97811 217.3192 C 54.7999 217.0988 58.24954 217.0781 61.74883 219.9035 C 65.57455 222.9926 67.33409 227.2912 68.12741 230.1765 C 69.40803 234.8341 69.53957 240.6648 68.64137 246.2159 C 68.56397 246.6942 67.9081 251.0683 66.06631 255.5798 C 65.5881 256.7512 64.23566 259.8657 62.26721 263.138 C 62.07271 263.4613 60.10844 266.757 57.63515 269.1462 C 57.25218 269.5162 55.45068 271.2521 53.18268 272.1505 C 52.58469 272.3874 50.83833 272.9948 48.91106 272.7564 C 47.40452 272.5701 45.50785 271.7238 43.99368 271.6059 C 43.08986 271.5356 42.16958 271.9179 41.11307 272.4768 C 41.11307 272.4768 40.00677 273.1071 39.59802 273.2232 C 39.59802 273.2232 39.11214 273.3419 38.61719 273.4108 C 38.08597 273.4848 38.02271 273.5278 37.42725 273.4935 Z" fill="none" fill-opacity="1" stroke="#FF0000" stroke-opacity="1" stroke-width="0.1" stroke-linecap="round" stroke-linejoin="round"/>
<path d="M 37.31541 211.1311 L 37.31541 272.4463" fill="none" fill-opacity="1" stroke="#FF0000" stroke-opacity="1" stroke-width="0.1" stroke-dasharray="2.5 2.5" stroke-dashoffset="0" stroke-linecap="round" stroke-linejoin="round"/>
<path d="M 108.8548 272.0649 C 108.2593 272.0992 108.1961 272.0562 107.6648 271.9822 C 107.1699 271.9133 106.684 271.7946 106.684 271.7946 C 106.2752 271.6785 105.169 271.0482 105.169 271.0482 C 104.1124 270.4893 103.1922 270.107 102.2883 270.1773 C 100.7742 270.2952 98.87752 271.1415 97.37098 271.3278 C 95.44371 271.5662 93.69735 270.9588 93.09936 270.722 C 90.83134 269.8236 89.02985 268.0876 88.64689 267.7177 C 86.17365 265.3284 84.20934 262.0327 84.01484 261.7094 C 82.04636 258.4371 80.69395 255.3226 80.21573 254.1512 C 78.37393 249.6397 77.71809 245.2656 77.64069 244.7873 C 76.74243 239.2362 76.87402 233.4055 78.15464 228.7479 C 78.94796 225.8626 80.7075 221.564 84.53323 218.475 C 88.03252 215.6496 91.48216 215.6703 93.30395 215.8906 C 95.892 216.2037 100.4135 217.8217 101.6429 218.2363 C 101.6429 218.2363 103.7633 218.9813 104.1568 219.0348 C 104.3476 219.0608 107.626 219.0743 108.0112 219.0877 C 107.9315 216.2607 107.6341 209.6678 107.6341 209.6678 C 107.9996 209.6611 108.7919 209.6722 108.8528 209.6731 C 108.9137 209.6722 109.71 209.6611 110.0755 209.6678 C 110.0755 209.6678 109.7781 216.2607 109.6983 219.0877 C 110.0835 219.0743 113.3619 219.0608 113.5527 219.0348 C 113.9463 218.9813 116.0666 218.2363 116.0666 218.2363 C 117.296 217.8217 121.8176 216.2037 124.4056 215.8906 C 126.2274 215.6703 129.677 215.6496 133.1763 218.475 C 137.0021 221.564 138.7616 225.8626 139.5549 228.7479 C 140.8355 233.4055 140.9671 239.2362 140.0689 244.7873 C 139.9915 245.2656 139.3356 249.6397 137.4938 254.1512 C 137.0156 255.3226 135.6632 258.4371 133.6947 261.7094 C 133.5002 262.0327 131.5359 265.3284 129.0627 267.7177 C 128.6797 268.0876 126.8782 269.8235 124.6102 270.722 C 124.0122 270.9588 122.2658 271.5662 120.3386 271.3278 C 118.832 271.1415 116.9353 270.2952 115.4212 270.1773 C 114.5174 270.107 113.5971 270.4893 112.5406 271.0482 C 112.5406 271.0482 111.4343 271.6785 111.0255 271.7946 C 111.0255 271.7946 110.5397 271.9133 110.0447 271.9822 C 109.5135 272.0562 109.4502 272.0992 108.8548 272.0649 Z" fill="none" fill-opacity="1" stroke="#FF0000" stroke-opacity="1" stroke-width="0.1" stroke-linecap="round" stroke-linejoin="round"/>
<path d="M 108.7429 209.7026 L 108.7429 271.0177" fill="none" fill-opacity="1" stroke="#FF0000" stroke-opacity="1" stroke-width="0.1" stroke-dasharray="2.5 2.5" stroke-dashoffset="0" stroke-linecap="round" stroke-linejoin="round"/>
<path d="M 177.9005 273.4935 C 177.305 273.5278 177.2418 273.4848 176.7106 273.4108 C 176.2156 273.3419 175.7297 273.2232 175.7297 273.2232 C 175.321 273.1071 174.2147 272.4768 174.2147 272.4768 C 173.1582 271.9179 172.2379 271.5356 171.3341 271.6059 C 169.8199 271.7238 167.9232 272.5701 166.4167 272.7564 C 164.4894 272.9948 162.7431 272.3874 162.1451 272.1505 C 159.8771 271.2521 158.0756 269.5162 157.6926 269.1462 C 155.2193 266.757 153.2551 263.4613 153.0605 263.138 C 151.0921 259.8657 149.7397 256.7512 149.2615 255.5798 C 147.4197 251.0683 146.7638 246.6942 146.6864 246.2159 C 145.7881 240.6648 145.9197 234.8341 147.2003 230.1765 C 147.9937 227.2912 149.7532 222.9926 153.5789 219.9035 C 157.0782 217.0781 160.5279 217.0988 162.3497 217.3192 C 164.9377 217.6323 169.4592 219.2503 170.6887 219.6648 C 170.6887 219.6648 172.809 220.4099 173.2025 220.4634 C 173.3933 220.4894 176.6717 220.5029 177.0569 220.5163 C 176.9772 217.6893 176.6798 211.0964 176.6798 211.0964 C 177.0453 211.0897 177.8376 211.1008 177.8985 211.1017 C 177.9594 211.1008 178.7557 211.0897 179.1212 211.0964 C 179.1212 211.0964 178.8238 217.6893 178.744 220.5163 C 179.1293 220.5029 182.4076 220.4894 182.5984 220.4634 C 182.992 220.4099 185.1123 219.6648 185.1123 219.6648 C 186.3418 219.2503 190.8633 217.6323 193.4513 217.3192 C 195.2731 217.0988 198.7228 217.0781 202.2221 219.9035 C 206.0478 222.9926 207.8073 227.2912 208.6006 230.1765 C 209.8812 234.8341 210.0128 240.6648 209.1146 246.2159 C 209.0372 246.6942 208.3813 251.0683 206.5396 255.5798 C 206.0613 256.7512 204.7089 259.8657 202.7404 263.138 C 202.5459 263.4613 200.5817 266.757 198.1084 269.1462 C 197.7254 269.5162 195.9239 271.2521 193.6559 272.1505 C 193.0579 272.3874 191.3116 272.9948 189.3843 272.7564 C 187.8778 272.5701 185.9811 271.7238 184.4669 271.6059 C 183.5631 271.5356 182.6428 271.9179 181.5863 272.4768 C 181.5863 272.4768 180.48 273.1071 180.0712 273.2232 C 180.0712 273.2232 179.5854 273.3419 179.0904 273.4108 C 178.5592 273.4848 178.4959 273.5278 177.9005 273.4935 Z" fill="none" fill-opacity="1" stroke="#FF0000" stroke-opacity="1" stroke-width="0.1" stroke-linecap="round" stroke-linejoin="round"/>
<path d="M 177.7886 211.1311 L 177.7886 272.4463" fill="none" fill-opacity="1" stroke="#FF0000" stroke-opacity="1" stroke-width="0.1" stroke-dasharray="2.5 2.5" stroke-dashoffset="0" stroke-linecap="round" stroke-linejoin="round"/>
<path d="M 110.9888 131.1041 C 111.5484 130.9664 112.3987 130.7572 112.8783 130.6394 C 114.1019 130.3387 116.1001 129.7068 116.8754 129.3753 C 117.2351 129.2215 117.6603 129.0428 117.8201 128.9781 C 118.4825 128.71 121.5167 127.1975 122.3259 126.732 C 122.8056 126.4561 123.4433 126.0943 123.7431 125.9281 C 124.0429 125.7618 124.2881 125.5687 124.2881 125.4991 C 124.2881 125.4294 124.4433 125.3334 124.6329 125.2858 C 124.8226 125.2381 125.3622 124.9191 125.8321 124.5767 C 126.3019 124.2344 127.1442 123.639 127.7038 123.2536 C 129.2917 122.1602 131.0396 120.7843 132.8006 119.2416 C 133.1256 118.9569 133.7658 118.3967 134.2233 117.9968 C 135.67 116.7322 137.4989 115.0158 139.9377 112.6339 C 142.5221 110.1098 142.591 109.9757 141.4767 109.638 C 141.1763 109.5469 140.6362 109.3505 140.2764 109.2014 C 139.1117 108.7187 135.4459 107.4969 133.5904 106.9729 C 133.1507 106.8487 132.3332 106.6106 131.7736 106.4437 C 131.214 106.2769 130.6541 106.1413 130.5294 106.1424 C 130.4048 106.1436 129.7834 106.0206 129.1486 105.869 C 126.1795 105.1603 124.5389 104.9401 122.1079 104.9241 C 120.069 104.9108 119.4919 104.9593 118.2562 105.2483 C 115.1982 105.9633 113.847 106.3249 112.4275 106.8081 C 111.6199 107.083 110.8843 107.308 110.7927 107.308 C 110.7011 107.308 110.1191 107.5451 109.4994 107.835 C 108.8796 108.1248 108.0128 108.5299 107.5731 108.7353 C 106.2699 109.3438 104.6521 110.4161 103.144 111.6708 C 101.8589 112.7399 100.2607 114.614 99.23747 116.2517 C 98.93762 116.7316 98.38765 117.6151 98.0153 118.2149 C 97.64296 118.8148 97.3004 119.3383 97.25405 119.3783 C 97.05363 119.5513 95.36387 121.8792 95.36387 121.9824 C 95.36387 122.0451 95.23829 122.2101 95.08482 122.3491 C 94.56963 122.8155 88.58279 131.346 88.49551 132.1922 C 88.36081 133.4981 93.0442 126.5291 94.31332 127.1202 C 94.9311 127.4079 95.555 129.3605 95.69975 129.4355 C 96.44599 129.8218 99.15443 130.6494 100.8871 131.0207 C 102.7939 131.4292 102.9499 131.4398 106.4103 131.3978 C 109.1744 131.3642 110.1991 131.2985 110.9888 131.1041 Z" fill="none" fill-opacity="1" stroke="#FF0000" stroke-opacity="1" stroke-width="0.1" stroke-linecap="round" stroke-linejoin="round"/>
<path d="M 95.13868 124.9968 C 95.23861 124.916 96.20908 125.1437 96.56882 125.0876 C 98.80222 124.7391 102.7166 123.0607 103.2871 122.5442 C 103.4241 122.4201 103.9993 120.4946 104.9908 118.7502 C 105.9428 117.0753 107.3117 115.5805 107.4774 115.3804 C 107.622 115.2057 109.4863 112.3718 109.6671 112.5644 C 109.9907 112.9091 108.3783 115.8929 108.1151 116.2919 C 107.968 116.5148 107.6228 117.1196 107.3481 117.6357 C 107.0733 118.1519 106.5632 119.0572 106.2144 119.6474 C 105.3494 121.1112 105.3671 121.8088 106.2579 121.3643 C 106.4848 121.2511 107.0302 120.9959 107.4698 120.7974 C 108.2739 120.4342 112.6754 118.2582 115.7203 116.7185 L 117.3575 115.8906 L 117.1374 115.465 C 117.0164 115.2308 117.4399 113.6216 118.0786 112.3392 C 119.6543 109.175 122.9748 107.5304 123.6685 107.4881 C 124.2819 107.4508 121.5397 110.2546 121.1635 110.631 C 120.4962 111.2987 119.045 114.1934 119.1739 114.5997 C 119.2728 114.9115 119.4171 114.9449 119.79 114.7423 C 120.1785 114.5314 122.153 113.6208 122.804 113.3524 C 123.4685 113.0784 126.7704 111.9826 127.9639 111.64 C 130.0119 111.0521 134.0813 110.5088 134.689 110.7421 C 134.8794 110.8152 137.5728 110.1601 137.5728 110.6925 C 137.5728 111.0791 134.8915 111.9349 134.8315 111.9715 C 134.7715 112.008 133.7218 112.0618 132.6027 112.1946 C 130.1633 112.4842 126.9853 113.678 125.9725 114.2023 C 125.7166 114.3348 125.3897 114.4453 125.2458 114.4481 C 125.1019 114.4508 124.7226 114.5794 124.4028 114.734 C 124.083 114.8885 123.7659 115.0172 123.6981 115.0199 C 123.6302 115.0226 123.3358 115.1317 123.044 115.2622 C 122.7521 115.3928 122.2517 115.6146 121.9319 115.755 C 120.0573 116.5782 119.5845 116.7951 119.3883 116.9212 C 119.2684 116.9984 119.0068 117.1296 118.8069 117.2128 C 118.6071 117.296 118.0838 117.5474 117.6442 117.7714 C 116.4929 118.358 115.3404 118.9381 114.617 119.2952 C 113.9286 119.635 113.6008 120.0538 113.8377 120.2908 C 113.9174 120.3705 114.3649 120.52 114.8322 120.6229 C 115.2996 120.7258 116.2707 120.987 116.9901 121.2033 C 119.4187 121.9334 119.749 122.0141 120.9041 122.159 C 121.538 122.2386 122.143 122.3754 122.2486 122.4631 C 122.4395 122.6216 126.942 121.6746 126.7711 121.8456 C 126.7244 121.8924 122.0962 123.5761 121.8832 123.5114 C 121.6701 123.4468 121.1097 123.6566 120.4302 123.5626 C 119.7507 123.4686 118.7633 123.3032 118.4436 123.195 C 118.1238 123.0868 117.4107 122.8229 116.6512 122.6086 C 115.8918 122.3943 115.16 122.1272 114.8174 122.015 C 114.4749 121.9028 112.5799 120.72 112.5718 120.66 C 112.5435 120.4507 112.2133 120.5554 110.8999 121.19 C 109.5762 121.8297 108.1164 122.5046 106.8885 123.0445 C 106.5287 123.2027 106.0382 123.4238 105.7983 123.5359 C 104.9146 123.9491 102.0648 124.9037 100.1298 125.4347 C 99.12942 125.7092 96.14001 126.3646 95.87482 126.3675 C 95.85284 126.3678 94.92153 125.1722 95.13868 124.9968 Z" fill="none" fill-opacity="1" stroke="#FF0000" stroke-opacity="1" stroke-width="0.1" stroke-linecap="round" stroke-linejoin="round"/>
<path d="M 524.6718 63.43585 C 524.6718 63.43585 535.2839 45.13659 538.6868 39.26276 C 538.6868 39.26276 549.347 57.54149 552.7823 63.42593 L 553.2276 63.06936 C 553.2276 63.06936 546.9297 52.20659 539.2444 38.93257 C 539.2444 38.93257 565.7814 38.73362 567.4778 38.67767 C 567.4752 38.64781 567.4359 38.17489 567.4359 38.17489 C 567.4359 38.17489 549.4145 38.2609 539.2421 38.29777 C 540.092 36.82584 553.1063 13.86848 553.1063 13.86848 L 552.5107 13.5338 C 552.5107 13.5338 540.383 35.03505 538.6891 37.98167 C 538.6891 37.98167 525.893 14.92443 525.0027 13.47807 L 524.3116 13.90588 C 524.3116 13.90588 532.2027 27.99984 538.1302 38.29105 C 536.4325 38.28804 515.1704 38.08556 510.0796 38.24345 C 510.0796 38.24345 510.1127 38.59661 510.1216 38.74621 C 510.1216 38.74621 534.7455 38.93923 538.1376 38.9395 C 538.1376 38.9395 525.0577 61.18258 524.0043 63.03823 L 524.6718 63.43585 Z" fill="none" fill-opacity="1" stroke="#FF0000" stroke-opacity="1" stroke-width="0.1" stroke-linecap="round" stroke-linejoin="round"/>
<path d="M 571.4221 38.45896 C 571.4221 56.41755 556.8339 71.00537 538.8748 71.00537 C 520.9158 71.00537 506.3275 56.41755 506.3275 38.45896 C 506.3275 20.50038 520.9158 5.91256 538.8748 5.91256 C 556.8339 5.91256 571.4221 20.50038 571.4221 38.45896 Z" fill="none" fill-opacity="1" stroke="#FF0000" stroke-opacity="1" stroke-width="0.1" stroke-linecap="round" stroke-linejoin="round"/>
<path d="M 380.4821 137.0552 C 380.4821 137.0552 391.0941 118.7559 394.4971 112.8821 C 394.4971 112.8821 405.1572 131.1608 408.5925 137.0453 L 409.0378 136.6887 C 409.0378 136.6887 402.74 125.8259 395.0547 112.5519 C 395.0547 112.5519 421.5917 112.353 423.2881 112.297 C 423.2856 112.2672 423.2462 111.7942 423.2462 111.7942 C 423.2462 111.7942 405.2248 111.8803 395.0524 111.9171 C 395.9023 110.4452 408.9166 87.48782 408.9166 87.48782 L 408.321 87.15315 C 408.321 87.15315 396.1933 108.6544 394.4994 111.601 C 394.4994 111.601 381.7033 88.54379 380.813 87.09742 L 380.1219 87.52522 C 380.1219 87.52522 388.013 101.6192 393.9406 111.9104 C 392.2428 111.9074 370.9807 111.7049 365.8899 111.8628 C 365.8899 111.8628 365.923 112.216 365.9319 112.3656 C 365.9319 112.3656 390.5558 112.5586 393.9478 112.5588 C 393.9478 112.5588 380.868 134.8019 379.8145 136.6576 L 380.4821 137.0552 Z" fill="none" fill-opacity="1" stroke="#FF0000" stroke-opacity="1" stroke-width="0.1" stroke-linecap="round" stroke-linejoin="round"/>
<path d="M 427.4228 112.2688 C 427.4228 130.2274 412.8346 144.8152 394.8755 144.8152 C 376.9165 144.8152 362.3283 130.2274 362.3283 112.2688 C 362.3283 94.3102 376.9165 79.72238 394.8755 79.72238 C 412.8346 79.72238 427.4228 94.3102 427.4228 112.2688 Z" fill="none" fill-opacity="1" stroke="#FF0000" stroke-opacity="1" stroke-width="0.1" stroke-linecap="round" stroke-linejoin="round"/>
<path d="M 474.6886 44.64078 C 474.6886 44.64078 447.5348 44.60015 440.7463 44.58998 C 440.7463 44.58998 454.2937 20.94024 457.6721 15.02299 L 457.1883 14.73315 C 457.1883 14.73315 447.8346 30.97959 440.1815 44.27212 C 440.1815 44.27212 423.9659 16.3938 423.0691 14.95261 C 423.0446 14.96978 422.5723 15.28796 422.5723 15.28796 C 422.5723 15.28796 434.5147 35.80048 439.6329 44.59156 C 437.9333 44.59149 405.6394 44.60884 405.6394 44.60884 L 405.6473 45.29196 C 405.6473 45.29196 436.2368 45.23487 439.6357 45.22853 C 439.6357 45.22853 423.3607 73.0951 422.5532 74.58932 L 423.1868 74.92629 C 423.1868 74.92629 434.2344 55.83677 440.1831 45.55782 C 441.0294 47.02963 454.5201 70.61021 457.2023 74.94006 C 457.2023 74.94006 457.5741 74.68721 457.6992 74.60469 C 457.6992 74.60469 442.4368 48.16498 440.741 45.22723 C 440.741 45.22723 472.5443 45.33804 474.678 45.32253 L 474.6886 44.64078 Z" fill="none" fill-opacity="1" stroke="#FF0000" stroke-opacity="1" stroke-width="0.1" stroke-linecap="round" stroke-linejoin="round"/>
<path d="M 480.3788 44.98045 C 480.3788 67.0621 462.4396 84.99909 440.3553 84.99909 C 418.2709 84.99909 400.3317 67.0621 400.3317 44.98045 C 400.3317 22.8988 418.2709 4.9618 440.3553 4.9618 C 462.4396 4.9618 480.3788 22.8988 480.3788 44.98045 Z" fill="none" fill-opacity="1" stroke="#FF0000" stroke-opacity="1" stroke-width="0.1" stroke-linecap="round" stroke-linejoin="round"/>
<path d="M 424.0238 158.002 C 424.7949 159.0968 426.8605 162.198 428.175 166.361 C 428.512 167.4281 429.8292 171.9074 429.9646 177.7003 C 430.0185 180.0064 430.0398 184.2001 428.8492 189.1387 C 428.087 192.3 427.0299 194.8895 425.4952 197.4951 C 425.1302 198.1147 424.2538 199.563 422.763 201.2737 C 422.312 201.7912 421.2325 203.012 419.4688 204.2116 C 417.4799 205.5643 415.2627 206.5451 412.2981 206.8276 C 411.4222 206.9111 407.7847 207.2223 403.5652 205.5914 C 402.4135 205.1463 399.6442 204.0214 396.3455 200.9938 C 395.1234 202.1158 393.3212 203.5723 391.1069 204.7011 C 389.1893 205.6786 386.8319 206.4919 384.4494 206.7891 C 383.8637 206.8621 381.1835 207.1144 378.57 206.5507 C 377.5526 206.3312 375.9743 205.9872 373.6503 204.4931 C 372.6601 203.8565 371.1328 202.8313 369.1296 200.3109 C 368.9411 200.0738 367.2025 197.9078 365.843 194.9577 C 365.533 194.2854 364.1924 191.1324 363.5231 187.6888 C 363.3666 186.8835 362.7486 183.5986 362.7121 179.4373 C 362.7086 179.0375 362.6479 175.3787 363.3121 171.481 C 363.5047 170.3503 363.9459 167.6371 365.2928 164.2204 C 366.6249 160.8412 369.2574 156.2086 373.2631 153.3 C 373.9296 152.816 375.5453 151.7088 378.0149 150.9992 C 379.1277 150.6794 380.8501 150.2637 383.6908 150.4696 C 388.84 150.8428 392.1704 153.7675 393.458 154.9198 C 393.6108 154.3385 393.7209 146.1325 394.4431 145.3722 C 394.7508 145.0484 395.4305 145.2959 396.3095 145.2738 C 397.0436 145.2705 397.6044 145.2294 398.2304 145.3628 C 399.025 145.5321 399.0164 154.1328 399.2328 154.9198 C 400.1354 154.0473 401.0896 153.3117 402.0953 152.7128 C 402.2296 152.6328 403.8644 151.7248 404.8579 151.3672 C 405.607 151.0976 408.7321 150.0087 412.5886 150.5486 C 415.7489 150.991 420.0214 152.5122 424.0238 158.002 Z" fill="none" fill-opacity="1" stroke="#FF0000" stroke-opacity="1" stroke-width="0.1" stroke-linecap="round" stroke-linejoin="round"/>
<path d="M 396.2121 145.2234 L 396.2121 201.2303" fill="none" fill-opacity="1" stroke="#FF0000" stroke-opacity="1" stroke-width="0.1" stroke-dasharray="2.5 2.5" stroke-dashoffset="0" stroke-linecap="round" stroke-linejoin="round"/>
<path d="M 438.7988 158.006 C 438.0277 159.1007 435.9621 162.202 434.6476 166.365 C 434.3106 167.432 432.9934 171.9114 432.8581 177.7042 C 432.8043 180.0103 432.7829 184.2041 433.9735 189.1426 C 434.7356 192.3039 435.7927 194.8934 437.3274 197.4991 C 437.6924 198.1187 438.5689 199.567 440.0597 201.2776 C 440.5107 201.7952 441.5901 203.016 443.3539 204.2156 C 445.3427 205.5683 447.56 206.549 450.5246 206.8315 C 451.4005 206.915 455.0379 207.2262 459.2574 205.5953 C 460.4091 205.1502 463.1785 204.0254 466.4772 200.9978 C 467.6993 202.1198 469.5015 203.5763 471.7157 204.705 C 473.6334 205.6825 475.9908 206.4959 478.3733 206.793 C 478.959 206.8661 481.6391 207.1184 484.2526 206.5546 C 485.2701 206.3351 486.8484 205.9912 489.1724 204.497 C 490.1626 203.8605 491.6899 202.8352 493.6931 200.3148 C 493.8816 200.0777 495.6202 197.9118 496.9798 194.9617 C 497.2897 194.2893 498.6303 191.1364 499.2995 187.6927 C 499.456 186.8874 500.074 183.6025 500.1105 179.4413 C 500.114 179.0415 500.1748 175.3826 499.5106 171.4849 C 499.318 170.3542 498.8767 167.641 497.5298 164.2243 C 496.1977 160.8451 493.5653 156.2125 489.5596 153.3039 C 488.8931 152.8199 487.2773 151.7127 484.8077 151.0031 C 483.6949 150.6833 481.9725 150.2676 479.1318 150.4735 C 473.9826 150.8468 470.6523 153.7715 469.3647 154.9238 C 469.2118 154.3425 469.1018 146.1365 468.3795 145.3761 C 468.0718 145.0523 467.3922 145.2998 466.5131 145.2778 C 465.7791 145.2745 465.2183 145.2333 464.5923 145.3667 C 463.7977 145.5361 463.8062 154.1367 463.5898 154.9237 C 462.6872 154.0513 461.7331 153.3156 460.7273 152.7168 C 460.593 152.6368 458.9582 151.7288 457.9647 151.3712 C 457.2156 151.1016 454.0905 150.0126 450.234 150.5525 C 447.0738 150.9949 442.8012 152.5161 438.7988 158.006 Z" fill="none" fill-opacity="1" stroke="#FF0000" stroke-opacity="1" stroke-width="0.1" stroke-linecap="round" stroke-linejoin="round"/>
<path d="M 466.6107 145.2265 L 466.6107 201.2334" fill="none" fill-opacity="1" stroke="#FF0000" stroke-opacity="1" stroke-width="0.1" stroke-dasharray="2.5 2.5" stroke-dashoffset="0" stroke-linecap="round" stroke-linejoin="round"/>
<path d="M 563.5724 157.2903 C 564.3435 158.3851 566.409 161.4863 567.7236 165.6493 C 568.0605 166.7164 569.3777 171.1957 569.5131 176.9886 C 569.567 179.2947 569.5883 183.4884 568.3976 188.427 C 567.6355 191.5883 566.5785 194.1777 565.0438 196.7834 C 564.6788 197.403 563.8024 198.8513 562.3116 200.562 C 561.8606 201.0795 560.7811 202.3004 559.0173 203.5 C 557.0284 204.8527 554.8112 205.8335 551.8466 206.116 C 550.9706 206.1994 547.3333 206.5107 543.1138 204.8797 C 541.9621 204.4346 539.1928 203.3098 535.894 200.2822 C 534.6719 201.4042 532.8698 202.8607 530.6555 203.9894 C 528.7379 204.9669 526.3804 205.7803 523.9979 206.0774 C 523.4122 206.1505 520.7321 206.4028 518.1185 205.839 C 517.1011 205.6195 515.5227 205.2756 513.1987 203.7814 C 512.2086 203.1449 510.6813 202.1196 508.6781 199.5992 C 508.4896 199.3621 506.7509 197.1962 505.3914 194.2461 C 505.0815 193.5737 503.7409 190.4208 503.0717 186.9771 C 502.9152 186.1718 502.2971 182.8869 502.2607 178.7257 C 502.2572 178.3259 502.1964 174.667 502.8606 170.7693 C 503.0533 169.6386 503.4944 166.9254 504.8413 163.5087 C 506.1734 160.1295 508.8058 155.4969 512.8115 152.5883 C 513.4781 152.1043 515.0938 150.9971 517.5634 150.2875 C 518.6761 149.9677 520.3986 149.552 523.2393 149.7579 C 528.3885 150.1311 531.7189 153.0559 533.0065 154.2082 C 533.1593 153.6269 533.2693 145.4209 533.9916 144.6606 C 534.2993 144.3367 534.9789 144.5842 535.858 144.5622 C 536.592 144.5589 537.1528 144.5177 537.7788 144.6511 C 538.5734 144.8204 538.5649 153.4211 538.7812 154.2081 C 539.6839 153.3356 540.6381 152.6 541.6438 152.0012 C 541.7781 151.9212 543.413 151.0132 544.4064 150.6556 C 545.1555 150.386 548.2806 149.297 552.1371 149.8369 C 555.2974 150.2794 559.5699 151.8005 563.5724 157.2903 Z" fill="none" fill-opacity="1" stroke="#FF0000" stroke-opacity="1" stroke-width="0.1" stroke-linecap="round" stroke-linejoin="round"/>
<path d="M 535.7606 144.5118 L 535.7606 200.5187" fill="none" fill-opacity="1" stroke="#FF0000" stroke-opacity="1" stroke-width="0.1" stroke-dasharray="2.5 2.5" stroke-dashoffset="0" stroke-linecap="round" stroke-linejoin="round"/>
<path d="M 424.0238 227.1019 C 424.7949 228.1967 426.8605 231.2979 428.175 235.461 C 428.512 236.528 429.8292 241.0074 429.9646 246.8002 C 430.0185 249.1063 430.0398 253.3 428.8492 258.2386 C 428.087 261.3999 427.0299 263.9894 425.4952 266.595 C 425.1302 267.2147 424.2538 268.6629 422.763 270.3736 C 422.312 270.8911 421.2325 272.112 419.4688 273.3116 C 417.4799 274.6643 415.2627 275.645 412.2981 275.9276 C 411.4222 276.011 407.7847 276.3222 403.5652 274.6913 C 402.4135 274.2462 399.6443 273.1213 396.3455 270.0937 C 395.1234 271.2157 393.3212 272.6722 391.107 273.801 C 389.1893 274.7785 386.8319 275.5919 384.4494 275.889 C 383.8637 275.9621 381.1835 276.2144 378.5701 275.6506 C 377.5526 275.4312 375.9743 275.0872 373.6503 273.593 C 372.6601 272.9565 371.1328 271.9312 369.1296 269.4108 C 368.9411 269.1737 367.2025 267.0077 365.843 264.0576 C 365.533 263.3853 364.1924 260.2324 363.5232 256.7887 C 363.3667 255.9834 362.7486 252.6985 362.7121 248.5373 C 362.7086 248.1375 362.6479 244.4787 363.3121 240.5809 C 363.5048 239.4502 363.9459 236.737 365.2928 233.3203 C 366.6249 229.9411 369.2574 225.3085 373.2631 222.3999 C 373.9296 221.9159 375.5453 220.8087 378.0149 220.0991 C 379.1277 219.7793 380.8502 219.3636 383.6909 219.5695 C 388.84 219.9427 392.1704 222.8675 393.458 224.0198 C 393.6108 223.4385 393.7209 215.2325 394.4431 214.4722 C 394.7508 214.1483 395.4305 214.3958 396.3095 214.3738 C 397.0436 214.3705 397.6044 214.3293 398.2304 214.4627 C 399.025 214.632 399.0164 223.2327 399.2328 224.0197 C 400.1354 223.1472 401.0896 222.4116 402.0953 221.8128 C 402.2296 221.7328 403.8644 220.8248 404.8579 220.4671 C 405.607 220.1976 408.7321 219.1086 412.5886 219.6485 C 415.7489 220.091 420.0214 221.6121 424.0238 227.1019 Z" fill="none" fill-opacity="1" stroke="#FF0000" stroke-opacity="1" stroke-width="0.1" stroke-linecap="round" stroke-linejoin="round"/>
<path d="M 396.2121 214.3235 L 396.2121 270.3303" fill="none" fill-opacity="1" stroke="#FF0000" stroke-opacity="1" stroke-width="0.1" stroke-dasharray="2.5 2.5" stroke-dashoffset="0" stroke-linecap="round" stroke-linejoin="round"/>
<path d="M 438.7988 227.1059 C 438.0277 228.2006 435.9621 231.3019 434.6476 235.4649 C 434.3106 236.5319 432.9934 241.0113 432.8581 246.8042 C 432.8043 249.1102 432.7829 253.304 433.9735 258.2426 C 434.7356 261.4039 435.7927 263.9933 437.3274 266.599 C 437.6924 267.2186 438.5689 268.6669 440.0597 270.3776 C 440.5107 270.8951 441.5901 272.1159 443.3538 273.3155 C 445.3427 274.6682 447.5599 275.6489 450.5246 275.9315 C 451.4005 276.0149 455.0379 276.3262 459.2574 274.6953 C 460.4091 274.2502 463.1785 273.1253 466.4772 270.0977 C 467.6993 271.2197 469.5014 272.6762 471.7157 273.8049 C 473.6333 274.7824 475.9907 275.5958 478.3732 275.8929 C 478.9589 275.966 481.6391 276.2183 484.2525 275.6545 C 485.27 275.4351 486.8483 275.0911 489.1724 273.597 C 490.1626 272.9604 491.6899 271.9352 493.6931 269.4148 C 493.8816 269.1777 495.6202 267.0117 496.9798 264.0616 C 497.2897 263.3892 498.6303 260.2363 499.2995 256.7927 C 499.456 255.9874 500.074 252.7024 500.1105 248.5412 C 500.114 248.1414 500.1748 244.4826 499.5106 240.5849 C 499.318 239.4541 498.8767 236.741 497.5298 233.3242 C 496.1977 229.9451 493.5653 225.3124 489.5596 222.4038 C 488.8931 221.9198 487.2773 220.8126 484.8077 220.103 C 483.6949 219.7832 481.9725 219.3675 479.1318 219.5734 C 473.9826 219.9467 470.6523 222.8714 469.3647 224.0237 C 469.2118 223.4424 469.1018 215.2364 468.3795 214.4761 C 468.0718 214.1522 467.3921 214.3998 466.5131 214.3777 C 465.779 214.3744 465.2182 214.3332 464.5922 214.4667 C 463.7976 214.636 463.8062 223.2366 463.5898 224.0236 C 462.6872 223.1512 461.7331 222.4155 460.7273 221.8167 C 460.593 221.7367 458.9582 220.8287 457.9647 220.4711 C 457.2156 220.2015 454.0905 219.1125 450.234 219.6524 C 447.0738 220.0949 442.8012 221.616 438.7988 227.1059 Z" fill="none" fill-opacity="1" stroke="#FF0000" stroke-opacity="1" stroke-width="0.1" stroke-linecap="round" stroke-linejoin="round"/>
<path d="M 466.6107 214.3265 L 466.6107 270.3333" fill="none" fill-opacity="1" stroke="#FF0000" stroke-opacity="1" stroke-width="0.1" stroke-dasharray="2.5 2.5" stroke-dashoffset="0" stroke-linecap="round" stroke-linejoin="round"/>
<path d="M 563.5724 226.3902 C 564.3435 227.485 566.409 230.5862 567.7236 234.7493 C 568.0605 235.8163 569.3777 240.2956 569.5131 246.0885 C 569.567 248.3946 569.5883 252.5883 568.3976 257.5269 C 567.6355 260.6882 566.5785 263.2777 565.0438 265.8834 C 564.6788 266.503 563.8024 267.9512 562.3116 269.6619 C 561.8606 270.1794 560.7811 271.4003 559.0173 272.5999 C 557.0284 273.9527 554.8112 274.9333 551.8466 275.2159 C 550.9706 275.2993 547.3333 275.6106 543.1138 273.9796 C 541.9621 273.5345 539.1928 272.4097 535.894 269.3821 C 534.6719 270.5041 532.8698 271.9606 530.6555 273.0893 C 528.7379 274.0668 526.3804 274.8802 523.9979 275.1774 C 523.4122 275.2505 520.7321 275.5027 518.1185 274.939 C 517.1011 274.7195 515.5227 274.3755 513.1987 272.8813 C 512.2086 272.2448 510.6813 271.2195 508.6781 268.6992 C 508.4896 268.462 506.7509 266.2961 505.3914 263.346 C 505.0815 262.6736 503.7409 259.5207 503.0717 256.077 C 502.9152 255.2717 502.2971 251.9869 502.2607 247.8256 C 502.2572 247.4258 502.1964 243.767 502.8606 239.8692 C 503.0533 238.7385 503.4944 236.0254 504.8413 232.6086 C 506.1734 229.2295 508.8059 224.5968 512.8116 221.6882 C 513.4781 221.2043 515.0938 220.097 517.5634 219.3874 C 518.6761 219.0676 520.3986 218.652 523.2393 218.8579 C 528.3885 219.2311 531.7189 222.1558 533.0065 223.3081 C 533.1593 222.7268 533.2693 214.5208 533.9916 213.7605 C 534.2993 213.4366 534.9789 213.6842 535.858 213.6621 C 536.592 213.6588 537.1528 213.6177 537.7788 213.7511 C 538.5734 213.9204 538.5649 222.521 538.7812 223.308 C 539.6839 222.4356 540.6381 221.6999 541.6438 221.1011 C 541.7781 221.0211 543.413 220.1131 544.4064 219.7555 C 545.1555 219.4859 548.2806 218.397 552.1371 218.9368 C 555.2974 219.3793 559.5699 220.9004 563.5724 226.3902 Z" fill="none" fill-opacity="1" stroke="#FF0000" stroke-opacity="1" stroke-width="0.1" stroke-linecap="round" stroke-linejoin="round"/>
<path d="M 535.7606 213.6118 L 535.7606 269.6187" fill="none" fill-opacity="1" stroke="#FF0000" stroke-opacity="1" stroke-width="0.1" stroke-dasharray="2.5 2.5" stroke-dashoffset="0" stroke-linecap="round" stroke-linejoin="round"/>
<path d="M 648.1051 221.4622 L 648.1051 33.65341 L 645.0575 33.65341 L 645.0575 221.4622 L 648.1051 221.4622 Z" fill="none" fill-opacity="1" stroke="#FF0000" stroke-opacity="1" stroke-width="0.1" stroke-linecap="round" stroke-linejoin="round"/>
<path d="M 657.7522 220.5456 L 657.7522 32.73682 L 654.7046 32.73682 L 654.7046 220.5456 L 657.7522 220.5456 Z" fill="none" fill-opacity="1" stroke="#FF0000" stroke-opacity="1" stroke-width="0.1" stroke-linecap="round" stroke-linejoin="round"/>
<path d="M 612.7524 127.0431 C 613.6131 127.0269 614.0496 126.8452 614.4502 126.3361 C 614.6176 126.1234 614.7599 126.0685 615.285 126.0141 C 616.4872 125.8897 617.7726 124.9888 618.4895 123.7681 C 618.7861 123.2632 618.8448 123.2115 619.3494 123.0117 C 619.5529 122.9311 619.699 122.7374 619.9146 122.2622 C 620.1459 121.7521 620.2391 121.6344 620.3709 121.6855 C 621.3311 122.0577 621.9595 122.0365 622.4164 121.6164 C 622.7305 121.3275 623.1165 120.5025 623.1177 120.1173 C 623.1182 119.9504 623.2076 119.7009 623.3162 119.5629 C 623.7125 119.0592 623.8008 118.6748 623.8008 117.4529 C 623.8008 116.8083 623.8354 116.2808 623.8778 116.2808 C 623.9201 116.2808 624.1942 116.3425 624.4868 116.4179 C 626.089 116.8309 627.116 116.8118 627.5634 116.3608 C 627.7753 116.1472 628.0882 115.2037 628.0882 114.7785 C 628.0882 114.6712 628.2037 114.4913 628.345 114.3788 C 628.5766 114.1942 628.5895 114.1509 628.4771 113.9368 C 628.4084 113.8062 628.2301 113.5435 628.0808 113.353 C 627.8521 113.0611 627.8179 112.9432 627.8633 112.6045 C 627.938 112.0482 627.6824 111.6708 626.7506 110.9617 C 625.2911 109.8509 624.9702 109.4773 624.9702 108.8895 C 624.9702 108.5422 625.3561 108.1946 625.7384 108.1978 C 626.3077 108.2026 626.7666 108.5475 628.0156 109.9092 C 630.3837 112.4909 631.6564 113.4505 632.741 113.4723 C 633.1955 113.4814 633.4646 113.3091 633.6967 112.8605 C 633.803 112.6548 633.9182 112.5954 634.2919 112.5533 C 634.931 112.4813 635.1395 112.2181 635.0535 111.5925 L 634.9899 111.1306 L 635.4861 110.9172 C 636.0301 110.6833 636.5655 110.1511 636.5655 109.8444 C 636.5655 109.6608 636.3244 109.1461 636.0529 108.7501 C 635.9208 108.5573 635.969 108.502 636.5498 108.1807 C 637.1753 107.8346 637.4073 107.0394 637.0734 106.3861 C 636.966 106.1759 636.7251 105.865 636.538 105.6951 C 636.2243 105.4102 636.2018 105.3524 636.2473 104.9488 C 636.295 104.5259 636.284 104.5036 635.9194 104.2813 C 635.712 104.1548 635.4108 103.9866 635.2501 103.9076 C 634.8076 103.69 634.8036 103.624 635.2112 103.2559 C 636.0169 102.5282 635.8864 101.4826 634.939 101.0767 C 634.6149 100.9377 634.5192 100.8448 634.5192 100.6684 C 634.5192 100.5428 634.463 100.3631 634.3942 100.269 C 634.2753 100.1064 634.2081 100.108 633.0217 100.3033 C 631.3563 100.5774 630.8682 100.5935 630.6559 100.3813 C 630.3923 100.1179 630.611 99.8462 631.6187 99.18517 C 633.0934 98.21776 633.7397 97.45457 633.7397 96.68073 C 633.7397 96.22359 633.539 95.99028 633.0417 95.86967 C 632.6218 95.76781 632.6189 95.76415 632.5685 95.26816 C 632.538 94.96736 632.442 94.68533 632.3269 94.55818 C 632.1341 94.34522 631.9771 94.33814 631.2917 94.51149 C 631.0665 94.56845 631.0143 94.53169 630.8532 94.20262 C 630.6291 93.74483 630.3316 93.5867 629.696 93.58762 C 629.0825 93.5885 628.4881 93.85434 628.1587 94.2751 C 627.8685 94.64572 627.7902 94.61475 627.7064 94.09651 C 627.6606 93.81354 627.5974 93.72305 627.4286 93.69896 C 627.0128 93.63956 626.1775 94.242 625.1924 95.31195 C 623.3961 97.26313 623.2451 97.39265 622.1182 97.94875 C 620.8434 98.57787 620.1227 98.83347 619.4131 98.90817 C 618.9941 98.95229 635.8976 86.26465 635.7997 86.1468 C 635.7697 86.11053 634.6196 86.36845 633.7626 87.00284 C 630.1655 89.66573 618.8146 98.28186 619.6017 97.15054 C 620.5551 95.78035 620.9715 95.38058 622.0706 94.78046 C 622.5667 94.50959 623.4647 93.58893 624.215 93.18111 C 624.9653 92.77328 625.4536 92.31012 625.598 92.15187 C 625.7483 91.98705 626.1943 91.68231 626.3154 91.27509 C 626.5718 90.41255 626.8621 90.31412 627.6566 89.04378 C 627.9954 88.50216 628.302 87.9415 628.3381 87.79786 C 628.4239 87.45609 628.1893 87.19546 627.7164 87.10712 C 627.519 87.07024 627.3026 86.99478 627.2356 86.93944 C 627.0841 86.81426 627.0798 86.28529 627.2244 85.56534 C 627.3666 84.85732 627.268 84.71962 626.6183 84.71962 C 626.152 84.71962 626.1423 84.71324 625.7568 84.14587 C 624.3982 82.14578 623.3375 82.33518 621.5607 84.89514 C 621.02 85.6742 620.96 85.59092 620.8977 83.97485 L 620.8517 82.78181 L 620.5555 82.75226 C 620.2598 82.72274 620.2592 82.72134 620.096 81.74525 C 619.9376 80.79803 619.788 80.35818 619.5777 80.22148 C 619.3372 80.06516 618.6844 80.62422 618.0505 81.52941 C 617.8723 81.7839 617.6751 81.99211 617.6124 81.99211 C 617.5496 81.99211 617.2874 81.58665 617.0297 81.09106 C 616.0829 79.27055 615.5379 78.64861 615.0742 78.85985 C 614.9455 78.91844 614.6818 79.18691 614.4881 79.45644 C 614.2944 79.72596 614.0852 79.94593 614.0233 79.94525 C 613.9613 79.94457 613.7034 79.70785 613.4503 79.4192 C 612.9187 78.81322 611.8975 78.09567 611.5667 78.09567 C 611.3793 78.09567 611.3262 78.16459 611.2611 78.49246 L 611.1823 78.88925 L 610.7925 78.60847 C 610.1988 78.18075 610.1202 78.17371 609.454 78.48878 C 608.7457 78.82373 608.5399 78.83663 607.463 78.61351 C 606.5162 78.41736 606.4667 78.44137 606.1508 79.24913 C 605.9666 79.72009 605.9341 79.99899 605.9278 81.16412 C 605.9188 82.83348 605.9833 83.00338 607.1313 84.32999 C 608.0984 85.44747 608.5005 86.1062 608.5018 86.5753 C 608.5029 87.02297 608.3596 87.15491 607.8718 87.15491 C 607.3787 87.15491 606.5102 86.67397 604.7999 85.45378 C 602.2622 83.64321 600.5095 83.11397 598.8444 83.65546 C 598.09 83.90075 597.5596 83.86053 596.8239 83.50226 C 596.1589 83.17837 595.996 83.20679 595.9878 83.64822 C 595.9843 83.83567 595.9376 84.00116 595.884 84.01596 C 595.8304 84.03077 595.4755 83.96954 595.0952 83.8799 C 594.3251 83.69841 594.0195 83.73796 593.6346 84.06893 C 593.4086 84.2633 593.3743 84.36485 593.3806 84.82317 C 593.3845 85.11446 593.478 85.61172 593.5884 85.92816 C 593.8627 86.71447 593.8557 87.35257 593.5699 87.61281 C 593.2174 87.93375 593.0066 88.00387 592.1814 88.07448 C 591.0824 88.16852 591.0367 88.18755 591.1101 88.52145 C 591.1676 88.78323 591.1492 88.80297 590.7993 88.85643 C 589.9175 88.99112 589.0806 89.32024 588.6874 89.68683 L 588.2928 90.05484 L 588.4706 90.44917 L 588.6485 90.84351 L 588.3005 91.268 C 587.7972 91.882 587.4576 92.66802 587.4564 93.22118 C 587.4555 93.66106 587.4714 93.68951 587.7498 93.74517 C 588.1201 93.8192 588.168 93.89787 588.0286 94.20369 C 587.9672 94.33823 587.942 94.51339 587.9725 94.59292 C 588.0212 94.7197 588.0848 94.72047 588.4881 94.59914 C 589.1434 94.40198 589.1416 94.4008 589.0737 94.97215 C 588.9821 95.74379 589.0291 95.77579 590.2538 95.77579 L 591.3043 95.77579 L 591.7582 96.23204 C 592.4537 96.9313 593.3988 97.15666 594.3218 96.84338 C 594.7261 96.70616 594.8039 96.70751 595.2311 96.85919 C 595.6965 97.02444 595.7038 97.02371 597.1866 96.6683 C 598.0052 96.47208 598.9073 96.31155 599.1914 96.31155 C 600.3485 96.31155 602.68 97.15234 603.5805 97.89438 C 604.0283 98.2634 604.0594 98.73389 603.655 99.02155 C 603.2407 99.31616 602.399 99.52611 601.632 99.52611 C 601.0011 99.52611 600.8499 99.48395 600.0292 99.07928 C 598.8998 98.52244 598.3699 98.35943 597.6868 98.35878 C 596.9784 98.35811 596.5969 98.47408 595.8353 98.92162 C 595.1831 99.3049 595.1635 99.34337 595.3351 99.8967 C 595.4666 100.3204 595.2671 100.5251 594.5029 100.7505 C 592.3098 101.3974 590.8659 102.0931 590.8659 102.503 C 590.8659 102.6283 591.262 102.8369 591.8646 103.029 C 592.0656 103.093 592.2298 103.1749 592.2294 103.2109 C 592.2291 103.247 592.0742 103.3817 591.8853 103.5103 C 591.2697 103.9294 590.5053 104.8407 590.3491 105.3419 C 590.1447 105.9977 589.9298 108.0782 590.0537 108.202 C 590.1183 108.2666 590.3418 108.2495 590.7205 108.1509 C 591.0337 108.0694 591.3011 108.0138 591.3147 108.0274 C 591.3283 108.041 591.192 108.3866 591.0117 108.7953 C 590.2739 110.4675 590.4584 111.0515 591.6504 110.817 C 591.9725 110.7537 592.26 110.7258 592.2893 110.7551 C 592.3186 110.7844 592.1841 111.1067 591.9905 111.4714 C 591.0686 113.2081 591.2046 114.2501 592.3163 113.968 C 592.7727 113.8522 592.8146 113.906 592.8148 114.6084 C 592.8152 115.8723 593.7247 116.3247 595.0071 115.699 L 595.5918 115.4137 L 595.7066 116.1538 C 595.8685 117.1972 595.9019 117.3006 596.1851 117.6371 C 596.5405 118.0593 596.8663 118.0344 597.4254 117.5424 L 597.8736 117.1481 L 598.1107 117.6155 C 598.5943 118.5689 598.8731 118.6173 599.7 117.8913 C 599.9766 117.6485 600.2418 117.4498 600.2893 117.4498 C 600.3368 117.4498 600.4272 117.8581 600.4902 118.3573 C 600.6223 119.4028 600.7803 119.8368 601.2045 120.3197 C 601.4724 120.6248 601.561 120.6643 601.9773 120.6643 C 602.3765 120.6643 602.4964 120.6165 602.7711 120.3476 C 602.9491 120.1734 603.1877 119.8995 603.3015 119.7388 L 603.5084 119.4467 L 603.7202 119.8033 C 603.9893 120.2565 604.1185 120.3022 604.491 120.0757 C 605.0415 119.7411 606.238 117.8847 606.7487 116.573 C 607.4324 114.8173 608.2958 112.9389 608.6524 112.4317 C 609.353 111.4353 610.3723 110.6121 611.0667 110.4818 C 611.3596 110.4269 611.4547 110.4561 611.6641 110.6654 C 612.1887 111.1898 612.014 111.5882 609.829 114.8525 C 608.0418 117.5226 607.2354 119.0083 607.1627 119.765 C 607.1067 120.3474 607.2131 120.4167 607.9282 120.2634 C 608.1979 120.2056 608.4429 120.1825 608.4725 120.2121 C 608.5233 120.2628 608.3004 121.5177 607.9683 123.0508 C 607.7887 123.8799 607.7816 124.2318 607.9424 124.3358 C 608.0094 124.3792 608.3492 124.4146 608.6976 124.4146 L 609.3309 124.4146 L 609.3009 125.0025 C 609.2456 126.0882 609.6003 126.4129 610.2471 125.8688 C 610.4109 125.731 610.5896 125.6459 610.6443 125.6797 C 610.699 125.7135 610.7438 125.9557 610.7438 126.2179 C 610.7438 126.4801 610.7969 126.8113 610.8619 126.9538 C 610.975 127.2019 611.0012 127.2097 611.4709 127.1355 C 611.7408 127.0928 612.3176 127.0512 612.7524 127.0431 Z" fill="none" fill-opacity="1" stroke="#FF0000" stroke-opacity="1" stroke-width="0.1" stroke-linecap="round" stroke-linejoin="round"/>
<path d="M 614.5078 117.4786 C 614.4779 117.4008 614.6086 116.7761 614.7981 116.0905 C 615.1303 114.8885 615.2257 114.5338 615.7875 112.4086 C 616.3436 110.3048 616.7665 108.574 617.2873 106.2717 C 617.5972 104.9016 617.9577 103.0051 618.1401 101.7852 L 618.3068 100.6706 L 618.5812 100.6706 C 618.8259 100.6706 618.8555 100.7049 618.855 100.9872 C 618.8537 101.7126 618.2529 104.9916 617.6906 107.3432 C 617.6393 107.5575 617.5271 108.0397 617.4412 108.4147 C 616.9667 110.4873 615.2542 116.9391 615.0562 117.4008 C 614.9503 117.6476 614.5921 117.6983 614.5078 117.4786 Z" fill="none" fill-opacity="1" stroke="#FF0000" stroke-opacity="1" stroke-width="0.1" stroke-linecap="round" stroke-linejoin="round"/>
<path d="M 629.9372 109.5106 C 629.1551 108.6015 625.5686 105.1007 624.1838 103.8946 C 622.3802 102.3238 619.7451 100.3784 619.421 100.3784 C 619.2745 100.3784 619.3758 99.96982 619.5491 99.86125 C 619.9288 99.62349 623.4871 102.3027 626.3098 104.9517 C 627.4497 106.0215 630.2981 108.9081 630.6182 109.3179 C 630.8586 109.6257 630.8611 109.6432 630.6926 109.8293 C 630.5967 109.9353 630.4865 110.022 630.4477 110.022 C 630.4089 110.022 630.1792 109.7919 629.9372 109.5106 Z" fill="none" fill-opacity="1" stroke="#FF0000" stroke-opacity="1" stroke-width="0.1" stroke-linecap="round" stroke-linejoin="round"/>
<path d="M 599.3709 108.5673 C 599.3154 108.4637 599.2701 108.3571 599.2701 108.3305 C 599.2701 108.1693 605.8896 104.6899 608.8992 103.2691 C 612.0593 101.7772 616.0802 100.2202 617.258 100.0323 C 617.6183 99.97477 617.6638 99.99048 617.7161 100.1904 C 617.7955 100.4936 617.7593 100.5289 617.2259 100.6677 C 615.891 101.0151 613.0434 102.074 611.2407 102.8934 C 610.9003 103.0481 610.3368 103.2993 609.9885 103.4515 C 608.3508 104.1673 603.3201 106.746 600.3337 108.4004 C 599.5956 108.8093 599.5085 108.8244 599.3709 108.5673 Z" fill="none" fill-opacity="1" stroke="#FF0000" stroke-opacity="1" stroke-width="0.1" stroke-linecap="round" stroke-linejoin="round"/>
<path d="M 616.2086 98.91552 C 612.4767 97.01797 607.2569 95.43973 602.5344 94.78105 C 601.468 94.63232 599.5179 94.43672 599.0997 94.43657 C 598.9211 94.43651 598.8805 94.38234 598.8805 94.14426 C 598.8805 93.85613 598.8877 93.85202 599.3994 93.85202 C 600.6277 93.85202 603.8757 94.29085 605.9935 94.74294 C 609.3699 95.46366 612.9227 96.66067 616.1273 98.15717 C 617.5607 98.82655 617.6096 98.86296 617.4735 99.16155 C 617.4127 99.29512 617.315 99.40216 617.2566 99.39942 C 617.1982 99.39668 616.7266 99.17892 616.2086 98.91552 Z" fill="none" fill-opacity="1" stroke="#FF0000" stroke-opacity="1" stroke-width="0.1" stroke-linecap="round" stroke-linejoin="round"/>
<path d="M 617.2589 97.23666 C 616.0406 94.08147 614.4962 90.71274 613.1864 88.3532 C 612.5353 87.18031 611.4287 85.47935 610.8785 84.80583 L 610.5311 84.38052 L 610.7699 84.18724 L 611.0086 83.99397 L 611.285 84.32033 C 613.1039 86.46745 615.7723 91.63286 617.8876 97.10143 C 618.3914 98.40387 618.4032 98.45611 618.2242 98.58693 C 618.1223 98.6615 617.9924 98.72238 617.9356 98.7222 C 617.8788 98.72202 617.5743 98.05351 617.2589 97.23666 Z" fill="none" fill-opacity="1" stroke="#FF0000" stroke-opacity="1" stroke-width="0.1" stroke-linecap="round" stroke-linejoin="round"/>
</svg>